<svg xmlns="http://www.w3.org/2000/svg" xmlns:xlink="http://www.w3.org/1999/xlink" width="500" zoomAndPan="magnify" viewBox="0 0 375 374.999991" height="500" preserveAspectRatio="xMidYMid meet" version="1.2"><g id="f4e4954fd7"><rect x="0" width="375" y="0" height="374.999991" style="fill:#ffffff;fill-opacity:1;stroke:none;"/><rect x="0" width="375" y="0" height="374.999991" style="fill:#ffffff;fill-opacity:1;stroke:none;"/><path style=" stroke:none;fill-rule:nonzero;fill:#c41e22;fill-opacity:1;" d="M 45.140625 149.6875 L 56.007812 149.6875 L 56.007812 168.890625 C 59.757812 165.140625 65.070312 163.265625 70.140625 163.265625 C 83.957031 163.265625 92.953125 175.277344 92.953125 187.292969 C 92.953125 196.390625 86.980469 211.667969 70.382812 211.667969 C 61.632812 211.667969 57.8125 207.742188 55.105469 204.722656 L 55.105469 210.171875 L 45.140625 210.171875 Z M 68.992188 201.703125 C 76.109375 201.703125 82.082031 196.214844 82.082031 187.359375 C 82.082031 178.507812 75.695312 173.230469 68.820312 173.230469 C 60.484375 173.230469 55.347656 180.277344 55.347656 186.875 C 55.347656 196.945312 62.605469 201.703125 68.992188 201.703125 Z M 68.992188 201.703125 "/><path style=" stroke:none;fill-rule:nonzero;fill:#c41e22;fill-opacity:1;" d="M 106.042969 192.359375 C 106.527344 195.3125 110.796875 201.703125 118.542969 201.703125 C 123.367188 201.703125 126.980469 199.652344 129.027344 195.867188 L 140.453125 195.867188 C 137.847656 204.0625 129.269531 211.667969 118.542969 211.667969 C 104.722656 211.667969 94.582031 200.867188 94.582031 187.640625 C 94.582031 174.410156 104.0625 163.265625 118.472656 163.265625 C 132.882812 163.265625 141.945312 175.453125 141.945312 186.875 C 141.921875 188.726562 141.703125 190.554688 141.285156 192.359375 Z M 130.796875 183.609375 C 129.582031 176.355469 124.339844 173.230469 118.542969 173.230469 C 114.132812 173.230469 107.742188 175.207031 105.730469 183.609375 Z M 130.796875 183.609375 "/><path style=" stroke:none;fill-rule:nonzero;fill:#c41e22;fill-opacity:1;" d="M 155.171875 192.359375 C 155.660156 195.3125 159.929688 201.703125 167.707031 201.703125 C 172.5 201.703125 176.109375 199.652344 178.160156 195.867188 L 189.617188 195.867188 C 186.980469 204.0625 178.402344 211.667969 167.707031 211.667969 C 153.890625 211.667969 143.75 200.867188 143.75 187.640625 C 143.75 174.410156 153.230469 163.265625 167.605469 163.265625 C 182.5 163.265625 191.078125 175.453125 191.078125 186.875 C 191.070312 188.730469 190.851562 190.558594 190.417969 192.359375 Z M 179.964844 183.609375 C 178.714844 176.355469 173.507812 173.230469 167.707031 173.230469 C 163.265625 173.230469 156.910156 175.207031 154.859375 183.609375 Z M 179.964844 183.609375 "/><path style=" stroke:none;fill-rule:nonzero;fill:#c41e22;fill-opacity:1;" d="M 204.339844 192.359375 C 204.828125 195.3125 209.0625 201.703125 216.839844 201.703125 C 221.667969 201.703125 225.242188 199.652344 227.292969 195.867188 L 238.75 195.867188 C 236.144531 204.0625 227.535156 211.667969 216.839844 211.667969 C 203.019531 211.667969 192.882812 200.867188 192.882812 187.640625 C 192.882812 174.410156 202.359375 163.265625 216.734375 163.265625 C 231.109375 163.265625 240.207031 175.453125 240.207031 186.875 C 240.203125 188.730469 239.984375 190.558594 239.546875 192.359375 Z M 229.097656 183.609375 C 227.882812 176.355469 222.640625 173.230469 216.839844 173.230469 C 212.429688 173.230469 206.042969 175.207031 203.992188 183.609375 Z M 229.097656 183.609375 "/><path style=" stroke:none;fill-rule:nonzero;fill:#c41e22;fill-opacity:1;" d="M 240.765625 200.207031 L 260.902344 174.792969 L 243.054688 174.792969 L 243.054688 164.828125 L 273.890625 164.828125 L 273.890625 174.792969 L 253.785156 200.207031 L 275.277344 200.207031 L 275.277344 210.171875 L 240.765625 210.171875 Z M 240.765625 200.207031 "/><path style=" stroke:none;fill-rule:nonzero;fill:#c41e22;fill-opacity:1;" d="M 292.535156 205.9375 L 275.9375 164.828125 L 288.367188 164.828125 L 298.679688 193.921875 L 309.652344 164.828125 L 321.980469 164.828125 L 295.902344 225.3125 L 284.203125 225.3125 Z M 292.535156 205.9375 "/><path style=" stroke:none;fill-rule:nonzero;fill:#c41e22;fill-opacity:1;" d="M 323.855469 199.203125 C 324.25 199.203125 324.640625 199.238281 325.027344 199.316406 C 325.414062 199.394531 325.789062 199.507812 326.152344 199.660156 C 326.515625 199.808594 326.863281 199.996094 327.191406 200.214844 C 327.519531 200.433594 327.824219 200.683594 328.101562 200.960938 C 328.378906 201.238281 328.628906 201.542969 328.847656 201.871094 C 329.066406 202.199219 329.253906 202.546875 329.402344 202.910156 C 329.554688 203.273438 329.667969 203.648438 329.746094 204.035156 C 329.824219 204.421875 329.859375 204.8125 329.859375 205.207031 C 329.863281 205.601562 329.828125 205.996094 329.75 206.382812 C 329.675781 206.769531 329.5625 207.148438 329.414062 207.511719 C 329.261719 207.878906 329.078125 208.226562 328.859375 208.554688 C 328.640625 208.882812 328.390625 209.1875 328.113281 209.464844 C 327.832031 209.746094 327.527344 209.996094 327.199219 210.214844 C 326.871094 210.433594 326.523438 210.617188 326.160156 210.765625 C 325.792969 210.917969 325.417969 211.03125 325.027344 211.105469 C 324.640625 211.179688 324.25 211.21875 323.855469 211.214844 C 323.460938 211.214844 323.070312 211.175781 322.683594 211.101562 C 322.296875 211.023438 321.917969 210.910156 321.554688 210.757812 C 321.191406 210.605469 320.84375 210.421875 320.515625 210.203125 C 320.1875 209.984375 319.886719 209.734375 319.605469 209.457031 C 319.328125 209.175781 319.078125 208.875 318.859375 208.546875 C 318.640625 208.21875 318.457031 207.871094 318.304688 207.507812 C 318.152344 207.144531 318.039062 206.765625 317.960938 206.378906 C 317.886719 205.992188 317.847656 205.601562 317.847656 205.207031 C 317.847656 204.816406 317.890625 204.425781 317.96875 204.039062 C 318.046875 203.652344 318.160156 203.277344 318.3125 202.914062 C 318.464844 202.550781 318.652344 202.207031 318.871094 201.878906 C 319.089844 201.550781 319.339844 201.25 319.617188 200.972656 C 319.894531 200.691406 320.199219 200.445312 320.523438 200.222656 C 320.851562 200.003906 321.199219 199.820312 321.5625 199.667969 C 321.925781 199.515625 322.296875 199.402344 322.683594 199.324219 C 323.070312 199.242188 323.460938 199.203125 323.855469 199.203125 Z M 323.855469 199.203125 "/></g></svg>