<svg xmlns="http://www.w3.org/2000/svg" xmlns:xlink="http://www.w3.org/1999/xlink" width="500" zoomAndPan="magnify" viewBox="0 0 375 374.999991" height="500" preserveAspectRatio="xMidYMid meet" version="1.2"><g id="c5d0b44504"><rect x="0" width="375" y="0" height="374.999991" style="fill:#ffffff;fill-opacity:1;stroke:none;"/><rect x="0" width="375" y="0" height="374.999991" style="fill:#ffffff;fill-opacity:1;stroke:none;"/><path style=" stroke:none;fill-rule:nonzero;fill:#c41e22;fill-opacity:1;" d="M 127.933594 98.890625 L 154.640625 98.890625 L 154.640625 146.078125 C 163.875 136.839844 176.925781 132.222656 189.375 132.222656 C 223.308594 132.222656 245.390625 161.734375 245.390625 191.253906 C 245.390625 213.542969 230.734375 251.085938 189.976562 251.085938 C 168.488281 251.085938 159.054688 241.449219 152.429688 234.019531 L 152.429688 247.472656 L 127.933594 247.472656 Z M 186.5625 226.59375 C 204.03125 226.59375 218.6875 213.140625 218.6875 191.453125 C 218.6875 169.765625 203.023438 156.71875 186.160156 156.71875 C 165.679688 156.71875 153.03125 173.984375 153.03125 190.25 C 153.03125 214.949219 170.898438 226.59375 186.5625 226.59375 Z M 186.5625 226.59375 "/><path style=" stroke:none;fill-rule:nonzero;fill:#c41e22;fill-opacity:1;" d="M 139.269531 262.265625 C 133.085938 262.265625 128.054688 267.296875 128.054688 273.484375 C 128.054688 279.667969 133.085938 284.699219 139.269531 284.699219 C 145.453125 284.699219 150.484375 279.667969 150.484375 273.484375 C 150.484375 267.296875 145.453125 262.265625 139.269531 262.265625 Z M 139.269531 262.265625 "/><path style=" stroke:none;fill-rule:nonzero;fill:#c41e22;fill-opacity:1;" d="M 186.667969 262.265625 C 180.484375 262.265625 175.453125 267.296875 175.453125 273.484375 C 175.453125 279.667969 180.484375 284.699219 186.667969 284.699219 C 192.851562 284.699219 197.882812 279.667969 197.882812 273.484375 C 197.882812 267.296875 192.851562 262.265625 186.667969 262.265625 Z M 186.667969 262.265625 "/><path style=" stroke:none;fill-rule:nonzero;fill:#c41e22;fill-opacity:1;" d="M 234.0625 262.265625 C 227.878906 262.265625 222.847656 267.296875 222.847656 273.484375 C 222.847656 279.667969 227.878906 284.699219 234.0625 284.699219 C 240.246094 284.699219 245.277344 279.667969 245.277344 273.484375 C 245.277344 267.296875 240.246094 262.265625 234.0625 262.265625 Z M 234.0625 262.265625 "/></g></svg>